Coordinates
version=1
nRows=14
nColumns=36
inDegrees=yes

Units are S.I. units (second, meters, Newtons, ...)
If the header above contains a line with 'inDegrees', this indicates whether rotational values are in degrees (yes) or radians (no).

endheader
time	pelvis_tilt	pelvis_list	pelvis_rotation	pelvis_tx	pelvis_ty	pelvis_tz	hip_flexion_r	hip_adduction_r	hip_rotation_r	knee_angle_r	knee_angle_r_beta	ankle_angle_r	subtalar_angle_r	mtp_angle_r	hip_flexion_l	hip_adduction_l	hip_rotation_l	knee_angle_l	knee_angle_l_beta	ankle_angle_l	subtalar_angle_l	mtp_angle_l	lumbar_extension	lumbar_bending	lumbar_rotation	arm_flex_r	arm_add_r	arm_rot_r	elbow_flex_r	pro_sup_r	arm_flex_l	arm_add_l	arm_rot_l	elbow_flex_l	pro_sup_l
      2.47083330	    -15.43016635	      3.85310159	      0.07586938	      0.40965814	      1.31054904	     -0.03316957	     13.36591671	    -10.06400300	    -14.21403638	      0.32449405	      0.00566349	    -42.73492039	     -4.04846090	     -7.49999987	     14.26749803	     -4.64130457	     -3.19705964	      3.73055579	      0.06511048	    -41.01531258	     -6.57995063	     -7.49999987	     -0.04830369	     -2.54774917	      0.26351987	      3.00536436	     -6.99640248	     -0.63002295	     39.36347914	     81.12025617	      4.27821752	    -14.09065794	     25.19111757	     27.47600665	     67.41534243
      2.47500000	    -15.62680661	      3.94148498	      0.12367105	      0.40930514	      1.30958320	     -0.03345295	     13.79665594	    -10.18433873	    -13.84148848	      0.31619637	      0.00551867	    -42.57809978	     -4.14756999	     -7.49999987	     14.81550833	     -4.47957678	     -3.52140316	      3.93949814	      0.06875721	    -41.07153970	     -6.63153744	     -7.49999987	     -0.21443679	     -2.46892857	      0.44564712	      2.67206409	     -6.94443756	     -1.42861850	     40.19564758	     80.69616205	      4.02110878	    -14.02270104	     23.76193870	     28.02021752	     67.50594878
      2.47916670	    -15.85382934	      4.08233991	      0.20883846	      0.40572543	      1.30632458	     -0.03733745	     14.33970160	    -10.51642929	    -13.20720424	      0.31077570	      0.00542406	    -42.32631547	     -3.90507170	     -7.49999987	     15.51081214	     -4.23672443	     -4.11043159	      4.23912899	      0.07398676	    -40.72393236	     -6.38959336	     -7.49999987	     -0.39537872	     -2.31964678	      0.46394480	      2.78192607	     -7.23738758	     -1.48353327	     40.68175026	     79.53987095	      3.90040491	    -13.71112461	     22.75875722	     28.32076899	     67.44168250
      2.48333330	    -16.07330265	      4.25634282	      0.35793439	      0.40550201	      1.30817178	     -0.03792899	     14.89532597	    -10.79821448	    -12.38135487	      0.30189351	      0.00526904	    -41.74463605	     -3.46342997	     -7.49999987	     16.28046535	     -3.96688309	     -4.47019642	      4.48327158	      0.07824785	    -40.94791280	     -6.24339789	     -7.49999987	     -0.94328251	     -2.34969605	      0.54323287	      2.75662015	     -7.25539517	     -2.94002975	     41.39814558	     85.49312437	      3.92061442	    -13.59553823	     21.08117740	     29.03786424	     72.66179590
      2.48750000	    -15.90781596	      4.30592635	      0.33499412	      0.40593036	      1.30513934	     -0.03794443	     14.98238594	    -10.83048034	    -11.76953064	      0.32534476	      0.00567834	    -41.36385559	     -3.06406517	     -7.49999987	     16.54712340	     -3.92161849	     -4.46043598	      4.60138867	      0.08030938	    -40.72827813	     -5.64089462	     -7.49999987	     -1.86999010	     -2.25395808	      0.62348866	      3.07253048	     -7.60598154	     -2.80028918	     42.01528693	     82.70949444	      3.88435847	    -13.65485494	     20.85877461	     30.26770645	     71.20736962
      2.49166670	    -15.86804378	      4.45940592	      0.36804094	      0.40997634	      1.30365965	     -0.03367989	     15.01967366	    -10.93362687	    -11.12345244	      0.31562589	      0.00550871	    -41.11121648	     -2.36432978	     -7.49999987	     16.84036358	     -3.89145921	     -4.81677502	      4.64863344	      0.08113396	    -40.40475937	     -4.70316230	     -7.49999987	     -2.15233154	     -2.56680540	      0.60788573	      3.35442045	     -7.72231398	     -2.18672584	     41.62704583	     83.20653124	      4.25935946	    -13.96674720	     21.36078292	     30.00223061	     71.68505916
      2.49583330	    -15.56674980	      4.44462552	      0.39674439	      0.41027099	      1.29501244	     -0.03443616	     14.73105803	    -10.88857088	    -10.47408416	      0.36147602	      0.00630895	    -41.08341225	     -2.21745389	     -7.49999987	     16.81046357	     -4.02775054	     -4.75699856	      4.70730612	      0.08215799	    -40.26360944	     -4.52333929	     -7.49999987	     -2.81925010	     -2.70153048	      0.63551644	      3.43447787	     -7.83854042	     -2.06222458	     41.86232272	     82.38935154	      4.46513663	    -14.28631395	     21.52665474	     30.76126216	     71.30462562
      2.50000000	    -15.20980358	      4.49974672	      0.36671116	      0.41033580	      1.29465163	     -0.03277552	     14.34653397	    -10.76706779	    -10.06790817	      0.41591640	      0.00725911	    -40.81292356	     -2.27632037	     -7.49999987	     16.63272765	     -4.10692483	     -4.99783817	      4.51661779	      0.07882985	    -40.50447549	     -4.33496237	     -7.49999987	     -3.53442555	     -3.06928351	      0.50019411	      3.95318969	     -7.98711488	     -1.72607882	     41.91982582	     80.85456153	      4.78109346	    -14.76061235	     22.05517834	     31.32786133	     70.66194712
      2.50416670	    -15.04261112	      4.57237128	      0.42944095	      0.41116391	      1.28314494	     -0.03186448	     14.22979757	    -10.81433428	     -9.75157694	      0.49174147	      0.00858251	    -40.54615793	     -2.43266527	     -7.49999987	     16.72750821	     -4.17041375	     -5.05238327	      4.69202337	      0.08189126	    -40.60720529	     -4.40663870	     -7.49999987	     -3.65849602	     -3.41898511	      0.44253185	      4.33943194	     -8.41055475	     -0.98853162	     41.88864869	     80.86262326	      5.43486764	    -15.41864714	     24.41294413	     31.06406621	     70.89476842
      2.50833330	    -14.89544860	      4.34115315	      0.38178641	      0.40718950	      1.27565551	     -0.02751053	     14.30229858	    -10.42145709	     -9.33821466	      0.60123305	      0.01049350	    -40.39153221	     -3.50374868	     -7.49999987	     17.04127682	     -4.65946840	     -4.81196412	      4.98841765	      0.08706431	    -40.96544968	     -4.56470484	     -7.49999987	     -4.08601325	     -3.54810243	      0.74403272	      4.40865622	     -8.49800689	     -2.40772111	     43.10323252	     83.30767515	      6.27223292	    -16.19974503	     26.78436485	     31.74982287	     70.23859993
      2.51250000	    -14.92226609	      4.16351942	      0.40056069	      0.40777342	      1.27966408	     -0.02811675	     14.52330335	    -10.18928317	     -8.46950364	      0.63582747	      0.01109728	    -39.77314002	     -3.37762243	     -7.49999987	     17.47474855	     -5.06790742	     -4.63455011	      5.18990732	      0.09058097	    -41.35733759	     -4.54122259	     -7.49999987	     -4.14477715	     -3.57201981	      0.51573009	      4.89371839	     -8.71340089	     -2.57304697	     43.47757978	     83.27343220	      6.50653808	    -16.50150293	     27.00815214	     31.96581309	     70.28107640
      2.51666670	    -15.14223423	      4.09920823	      0.54393980	      0.40702116	      1.27324238	     -0.03717462	     14.99565467	    -10.41411946	     -7.82021538	      0.74108682	      0.01293441	    -39.09791329	     -3.09263769	     -7.49999987	     18.05051656	     -4.97059487	     -4.29722150	      5.43264178	      0.09481749	    -41.86401683	     -4.80060062	     -7.49999987	     -3.99526889	     -3.32552437	      0.32386316	      4.89378547	     -9.30993330	     -2.91107123	     44.76079778	     81.91101094	      6.90898985	    -16.87914743	     29.59020899	     33.27470949	     69.92639188
      2.52083330	    -15.28250456	      4.05273382	      0.78788645	      0.40384545	      1.27635325	     -0.03320881	     15.40058620	    -10.63339567	     -7.33883411	      0.90414697	      0.01578034	    -37.87621171	     -2.63907111	     -7.49999987	     18.69112307	     -4.84989644	     -4.26983504	      5.72927838	      0.09999477	    -42.18402838	     -4.78610009	     -7.49999987	     -4.26638226	     -3.15502409	      0.03619663	      5.38903560	     -9.63175100	     -3.28787062	     45.74040174	     81.98413165	      7.60143601	    -17.10831777	     30.62734424	     34.36815444	     69.99971381
      2.52500000	    -15.29670314	      3.99648628	      0.89014305	      0.40397691	      1.27242528	     -0.03287498	     15.70929913	    -10.71105724	     -7.08481875	      1.03665239	      0.01809300	    -36.51680196	     -2.54270752	     -7.49999987	     18.99159632	     -4.82069633	     -4.30339789	      5.88946712	      0.10279059	    -42.24906822	     -4.34408952	     -7.49999987	     -4.74111265	     -3.09811905	     -0.20295572	      5.88848710	     -9.83566026	     -3.40373510	     46.55584157	     80.62180610	      7.95627333	    -17.26155985	     30.87941079	     35.48359925	     69.34991409
